<?xml version="1.0" encoding="UTF-8" standalone="no"?>
<!DOCTYPE svg PUBLIC "-//W3C//DTD SVG 1.1//EN" "http://www.w3.org/Graphics/SVG/1.1/DTD/svg11.dtd">
<svg width="100%" height="100%" viewBox="0 0 564 583" version="1.1" xmlns="http://www.w3.org/2000/svg" xmlns:xlink="http://www.w3.org/1999/xlink" xml:space="preserve" xmlns:serif="http://www.serif.com/" style="fill-rule:evenodd;clip-rule:evenodd;stroke-linejoin:round;stroke-miterlimit:2;">
    <g transform="matrix(1,0,0,1,1010.08,-238.978)">
        <path d="M-738.179,284.015L-738.186,284.04C-738.458,284.983 -738.594,285.956 -738.597,286.937L-738.597,295.776C-796.171,300.199 -841.504,341.091 -845.783,391.421C-845.999,392.253 -846.113,393.126 -846.113,394.026C-846.114,394.776 -846.098,395.525 -846.066,396.27L-846.075,396.565C-846.099,397.452 -846.112,398.338 -846.113,399.225L-846.113,425.184L-940.38,479.163C-943.604,481.01 -945.594,484.441 -945.594,488.157C-945.594,491.873 -943.604,495.305 -940.38,497.151L-922.444,507.422L-922.444,599.177L-1004.87,646.374C-1008.09,648.221 -1010.08,651.652 -1010.08,655.368C-1010.08,659.084 -1008.09,662.516 -1004.87,664.362L-733.383,819.82C-730.193,821.647 -726.273,821.647 -723.083,819.82L-451.598,664.362C-448.374,662.516 -446.384,659.084 -446.384,655.368C-446.384,651.652 -448.374,648.221 -451.598,646.374L-534.022,599.177L-534.022,507.422L-516.086,497.151C-512.862,495.305 -510.872,491.873 -510.872,488.157C-510.872,484.441 -512.862,481.01 -516.086,479.163L-610.357,425.182C-610.354,417.016 -610.353,409.572 -610.353,404.77L-610.353,399.225C-610.353,398.149 -610.371,397.078 -610.409,396.01C-610.384,395.352 -610.372,394.69 -610.372,394.026C-610.372,393.167 -610.477,392.332 -610.674,391.534C-614.896,341.151 -660.255,300.2 -717.869,295.776L-717.869,286.937C-717.869,286.597 -717.885,286.26 -717.917,285.928C-712.1,284.357 -706.721,280.96 -702.721,275.855C-701.792,274.669 -701.84,272.989 -702.834,271.857C-703.829,270.725 -705.489,270.463 -706.784,271.232C-713.842,275.424 -724.88,274.463 -733.243,267.912C-741.605,261.36 -745.18,250.873 -742.799,243.017C-742.362,241.575 -743.014,240.026 -744.351,239.331C-745.688,238.636 -747.33,238.992 -748.26,240.178C-758.105,252.745 -755.895,270.94 -743.329,280.786C-741.696,282.065 -739.969,283.14 -738.179,284.015ZM-922.444,623.063L-978.861,655.368C-926.541,685.327 -759.712,780.858 -728.233,798.883C-692.063,778.171 -477.606,655.368 -477.606,655.368L-534.022,623.063L-534.022,646.264C-534.022,646.335 -534.022,646.405 -534.023,646.476C-534.048,648.311 -534.55,650.032 -535.411,651.519L-535.428,651.548C-536.291,653.035 -537.535,654.326 -539.115,655.259C-539.176,655.295 -539.237,655.33 -539.298,655.365L-723.045,760.582C-724.524,761.44 -726.235,761.943 -728.059,761.973L-728.099,761.974L-728.156,761.974C-728.182,761.974 -728.207,761.974 -728.233,761.974C-728.233,761.974 -728.3,761.974 -728.3,761.974L-728.367,761.974L-728.407,761.973C-730.231,761.943 -731.942,761.441 -733.421,760.582L-917.168,655.365C-917.229,655.33 -917.29,655.295 -917.351,655.259C-918.932,654.326 -920.175,653.035 -921.038,651.548L-921.055,651.519C-921.916,650.032 -922.419,648.311 -922.443,646.476C-922.444,646.405 -922.444,646.335 -922.444,646.264L-922.444,623.063ZM-901.715,605.229L-901.715,640.327L-738.597,733.732L-738.597,612.696L-901.715,519.291L-901.715,605.114C-901.715,605.152 -901.715,605.19 -901.715,605.229ZM-554.751,605.114L-554.751,519.291L-717.869,612.696L-717.869,733.732L-554.751,640.327L-554.751,605.229C-554.751,605.19 -554.751,605.152 -554.751,605.114ZM-610.368,449.062C-610.369,450.608 -610.37,452.112 -610.372,453.556C-610.372,468.769 -616.888,483.253 -628.272,493.345C-628.279,493.351 -628.286,493.358 -628.293,493.364C-645.728,508.733 -678.273,529.305 -728.233,529.305C-778.189,529.305 -810.731,508.737 -828.179,493.385C-828.189,493.376 -828.198,493.368 -828.208,493.359C-839.595,483.264 -846.114,468.774 -846.113,453.556L-846.113,449.071L-914.373,488.157L-906.991,492.384C-906.958,492.403 -906.925,492.422 -906.892,492.441L-728.233,594.745L-549.576,492.442C-549.542,492.422 -549.508,492.403 -549.474,492.383L-542.094,488.157L-610.368,449.062ZM-631.089,436.231C-649.107,451.256 -680.831,469.775 -728.233,469.775C-775.636,469.775 -807.36,451.256 -825.385,436.246L-825.385,453.556C-825.385,462.838 -821.412,471.676 -814.47,477.837C-799.423,491.072 -771.291,508.576 -728.233,508.576C-685.176,508.576 -657.045,491.073 -642.012,477.825C-635.072,471.668 -631.1,462.834 -631.1,453.556C-631.1,453.553 -631.1,453.55 -631.1,453.547C-631.096,448.315 -631.092,442.306 -631.089,436.231ZM-738.597,316.578C-785.896,320.881 -823.532,354.299 -825.318,396.107C-824.772,404.619 -820.891,412.608 -814.47,418.307C-799.423,431.543 -771.291,449.046 -728.233,449.046C-685.176,449.046 -657.045,431.543 -642.012,418.295C-635.548,412.56 -631.658,404.502 -631.156,395.925C-633.048,354.197 -670.643,320.874 -717.869,316.578L-717.869,321.185C-717.869,326.905 -722.513,331.549 -728.233,331.549C-733.953,331.549 -738.597,326.905 -738.597,321.185L-738.597,316.578ZM-719.723,241.142C-720.142,239.852 -721.344,238.978 -722.7,238.978C-724.057,238.978 -725.259,239.852 -725.678,241.142L-727.395,246.427C-727.395,246.427 -732.953,246.427 -732.953,246.427C-734.309,246.427 -735.511,247.3 -735.93,248.59C-736.349,249.88 -735.89,251.293 -734.793,252.09L-730.297,255.357C-730.297,255.357 -732.014,260.642 -732.014,260.642C-732.433,261.932 -731.974,263.345 -730.877,264.142C-729.78,264.94 -728.294,264.94 -727.196,264.142L-722.701,260.876C-722.7,260.876 -718.204,264.142 -718.204,264.142C-717.107,264.94 -715.621,264.94 -714.524,264.142C-713.427,263.345 -712.968,261.932 -713.387,260.642L-715.104,255.357C-715.104,255.357 -710.608,252.09 -710.608,252.09C-709.511,251.293 -709.052,249.88 -709.471,248.59C-709.89,247.3 -711.092,246.427 -712.448,246.427L-718.006,246.427C-718.006,246.427 -719.723,241.142 -719.723,241.142Z" style="fill:white;"/>
    </g>
</svg>
